Coordinates
version=1
nRows=20
nColumns=23
inDegrees=yes

Units are S.I. units (second, meters, Newtons, ...)
If the header above contains a line with 'inDegrees', this indicates whether rotational values are in degrees (yes) or radians (no).

endheader
time	pelvis_tilt	pelvis_list	pelvis_rotation	pelvis_tx	pelvis_ty	pelvis_tz	hip_flexion_r	hip_adduction_r	hip_rotation_r	knee_angle_r	knee_angle_r_beta	ankle_angle_r	subtalar_angle_r	mtp_angle_r	hip_flexion_l	hip_adduction_l	hip_rotation_l	knee_angle_l	knee_angle_l_beta	ankle_angle_l	subtalar_angle_l	mtp_angle_l
      7.50000000	    -11.45021982	      3.73512506	      2.57970728	      2.17328762	      1.09167597	      1.02619258	     -2.04077693	     -5.94069702	    -10.58162022	     25.40319862	      0.44336946	    -16.26509334	      2.37527696	      0.00000000	     29.63177572	      5.16208774	     -8.60077880	     18.33772535	      0.32005368	     12.79062649	      7.55468248	      0.00000000
      7.50666667	    -11.66742935	      3.83634128	      2.87496640	      2.17382216	      1.09219474	      1.02537448	     -1.98121678	     -6.19750499	    -10.29780725	     26.34934021	      0.45988274	    -17.78963245	      1.94344152	      0.00000000	     29.17897104	      5.90256208	     -7.10025396	     15.29580112	      0.26696209	     12.40707045	      6.59171945	      0.00000000
      7.51333333	    -11.74721796	      3.90495607	      3.15949771	      2.17443949	      1.09229442	      1.02468148	     -2.00153115	     -6.41838985	    -10.04491160	     27.44540286	      0.47901264	    -19.19850078	      1.43894330	      0.00000000	     28.62569558	      6.50110182	     -5.58675102	     12.63598775	      0.22053959	     12.03251775	      5.62130407	      0.00000000
      7.52000000	    -11.84805972	      3.87230683	      3.42977601	      2.17486387	      1.09164193	      1.02408577	     -1.85541901	     -6.56637856	     -9.84835050	     28.81636034	      0.50294037	    -20.39698350	      1.03291803	      0.00000000	     28.50212667	      6.75155926	     -5.08520361	     11.07307978	      0.19326170	     12.21230508	      6.03637550	      0.00000000
      7.52666667	    -11.70002284	      3.94275328	      3.69568926	      2.17542469	      1.09098382	      1.02367302	     -1.96033438	     -6.75074076	     -9.51951516	     30.23180531	      0.52764454	    -21.46167839	      0.43698875	      0.00000000	     27.76639069	      7.23144499	     -3.20346595	      9.08481589	      0.15855995	     11.56352589	      4.15035637	      0.00000000
      7.53333333	    -11.62918823	      3.94259690	      3.95033098	      2.17569408	      1.08951310	      1.02324041	     -1.82621047	     -6.92968842	     -9.31179975	     31.95027623	      0.55763752	    -22.22144972	     -0.01287596	      0.00000000	     27.66902896	      7.40343323	     -2.82739831	      8.46642278	      0.14776695	     11.59028894	      4.15875754	      0.00000000
      7.54000000	    -11.39292819	      3.97459913	      4.25026019	      2.17593505	      1.08777156	      1.02284785	     -1.84087693	     -7.10775234	     -9.11856389	     33.74710669	      0.58899812	    -22.81222927	     -0.48950884	      0.00000000	     27.54512665	      7.57759479	     -2.55685338	      8.43063333	      0.14714231	     11.65100091	      4.10336950	      0.00000000
      7.54666667	    -11.09177406	      4.05349598	      4.52088471	      2.17600734	      1.08562488	      1.02252540	     -1.83110990	     -7.33505450	     -8.89297922	     35.71325187	      0.62331383	    -23.12947779	     -0.99558822	      0.00000000	     27.48315225	      7.74720290	     -2.43833939	      8.90186964	      0.15536693	     11.51879681	      3.83382844	      0.00000000
      7.55333333	    -10.64229812	      4.14840178	      4.79402209	      2.17601027	      1.08319723	      1.02226251	     -1.93843633	     -7.56683360	     -8.69875801	     37.74745711	      0.65881741	    -23.23665628	     -1.50561615	      0.00000000	     27.39880854	      7.88720205	     -2.45690531	      9.89878602	      0.17276641	     11.19943807	      3.45295968	      0.00000000
      7.56000000	    -10.54824749	      4.05828116	      5.03181129	      2.17556699	      1.07962686	      1.02204510	     -1.45589728	     -7.65709865	     -8.43232293	     40.09856167	      0.69985193	    -23.07235715	     -1.87182148	      0.00000000	     28.23269157	      7.65089823	     -3.67508151	     12.16134272	      0.21225547	     11.43115176	      4.45468842	      0.00000000
      7.56666667	    -10.17515922	      4.07862859	      5.26620609	      2.17517525	      1.07599017	      1.02192421	     -1.27658874	     -7.82824754	     -8.19318388	     42.43229261	      0.74058322	    -22.81217164	     -2.29329232	      0.00000000	     28.64559455	      7.53986086	     -4.28365770	     14.43060672	      0.25186160	     11.07955857	      4.32661005	      0.00000000
      7.57333333	     -9.67392385	      4.01185253	      5.45596205	      2.17468103	      1.07196164	      1.02195298	     -1.15625765	     -7.89348170	     -7.94278191	     44.83355143	      0.78249309	    -22.43623894	     -2.79005252	      0.00000000	     29.14629441	      7.12836631	     -5.57291440	     17.36607361	      0.30309516	     10.95310536	      5.08860713	      0.00000000
      7.58000000	     -9.17148476	      3.97844170	      5.60603116	      2.17402946	      1.06754399	      1.02207243	     -0.94515561	     -8.01825086	     -7.70346092	     47.33698797	      0.82618630	    -21.99901096	     -3.17081048	      0.00000000	     29.50662869	      6.85337155	     -5.95378773	     20.18970389	      0.35237681	     10.47770355	      4.29603835	      0.00000000
      7.58666667	     -8.60744499	      3.85285937	      5.73124207	      2.17330029	      1.06269462	      1.02237540	     -0.73151545	     -8.00831650	     -7.41437602	     49.87314596	      0.87045061	    -21.52814781	     -3.70468855	      0.00000000	     29.95035295	      6.28491735	     -6.87569787	     23.48942492	      0.40996780	     10.44303751	      4.57318124	      0.00000000
      7.59333333	     -8.11097704	      3.77274561	      5.85413174	      2.17233728	      1.05749986	      1.02259744	     -0.34987366	     -8.09705769	     -7.17397492	     52.50713375	      0.91642236	    -20.99997911	     -4.11018204	      0.00000000	     30.32376939	      5.95200492	     -6.93482504	     26.60038545	      0.46426431	     10.32888454	      3.56479620	      0.00000000
      7.60000000	     -7.20629120	      3.93590870	      5.93181464	      2.17142308	      1.05270867	      1.02289373	     -0.42773759	     -8.46026952	     -7.03909590	     55.06295539	      0.96102987	    -20.62055722	     -4.61042820	      0.00000000	     30.09424890	      5.85303608	     -6.93426370	     29.51671634	      0.51516388	     10.37241867	      2.52473575	      0.00000000
      7.60666667	     -7.06564716	      3.64802527	      6.01006476	      2.16980076	      1.04653910	      1.02327776	      0.62117390	     -8.29869995	     -6.58995093	     57.89735167	      1.01049941	    -19.86008951	     -4.85808396	      0.00000000	     30.91258722	      5.40588237	     -6.60511937	     32.85787308	      0.57347807	     11.39757394	      1.55864472	      0.00000000
      7.61333333	     -6.63949828	      3.59578787	      6.07626955	      2.16816766	      1.04078329	      1.02366068	      1.35182449	     -8.41172347	     -6.25924997	     60.64923288	      1.05852880	    -19.30750990	     -5.24441850	      0.00000000	     31.23562901	      5.18932402	     -6.35533911	     35.91461981	      0.62682837	     12.44523011	      0.82075443	      0.00000000
      7.62000000	     -6.27900294	      3.57187350	      6.14807535	      2.16644237	      1.03503449	      1.02404344	      2.20378567	     -8.55250525	     -5.92439417	     63.35829510	      1.10581086	    -18.66224656	     -5.52509236	      0.00000000	     31.50991938	      5.07394345	     -5.97700082	     38.78534964	      0.67693205	     13.82262937	      0.08900265	      0.00000000
      7.62666667	     -6.00360023	      3.56123319	      6.22790739	      2.16446122	      1.02928981	      1.02444278	      3.24356444	     -8.70796547	     -5.57685119	     66.07350820	      1.15320027	    -17.99121682	     -5.74553177	      0.00000000	     31.76399592	      5.00359957	     -5.59924601	     41.45922279	      0.72359994	     15.33824458	     -0.44938707	      0.00000000
